<svg width="867" height="455" viewBox="0 0 867 455" fill="none" xmlns="http://www.w3.org/2000/svg">
<g id="undraw_growth_chart_r99m 1" clip-path="url(#clip0)">
<path id="green" d="M884 196.128V460.748C883.993 465.321 881.835 469.706 878.001 472.94C874.167 476.174 868.968 477.994 863.546 478H-41.546C-46.9685 477.994 -52.1669 476.174 -56.0012 472.94C-59.8355 469.706 -61.9928 465.321 -62 460.748V432.065C-58.472 419.838 -44.4479 409.195 -29.1585 406.187C-8.6402 402.154 12.6191 407.793 32.6637 413.293C52.6964 418.792 74.0706 424.269 94.499 419.913C153.79 407.308 160.566 326.287 219.588 312.862C254.156 305.001 288.135 325.003 316.093 343.873C344.051 362.732 377.916 382.81 412.534 375.1C437.885 369.45 455.193 350.44 472.375 333.737C489.557 317.035 512.107 300.397 538.224 302.327C565.569 304.344 585.461 325.985 612.051 331.721C647.014 339.247 681.582 317.197 702.227 292.235C722.861 267.272 736.578 237.685 763.347 217.294C795.319 192.936 842.056 186.844 884 196.128Z" fill="#F1F0FF"/>
<path id="pink" d="M876 214.128V478.748C875.993 483.321 873.941 487.706 870.293 490.94C866.645 494.174 861.699 495.994 856.541 496H-4.54056C-9.69942 495.994 -14.645 494.174 -18.2929 490.94C-21.9407 487.706 -23.9931 483.321 -24 478.748V450.065C-20.6435 437.838 -7.30138 427.195 7.24451 424.187C26.7651 420.154 46.9907 425.793 66.0606 431.293C85.1192 436.792 105.454 442.269 124.889 437.913C181.297 425.308 187.743 344.287 243.896 330.862C276.782 323.001 309.11 343.003 335.708 361.873C362.307 380.732 394.524 400.81 427.46 393.1C451.577 387.45 468.044 368.44 484.39 351.737C500.737 335.035 522.19 318.397 547.038 320.327C573.053 322.344 591.977 343.985 617.274 349.721C650.538 357.247 683.425 335.197 703.066 310.235C722.696 285.272 735.746 255.685 761.214 235.294C791.631 210.936 836.096 204.844 876 214.128Z" fill="#EE287F"/>
</g>
<defs>
<clipPath id="clip0">
<rect width="866.36" height="454.167" fill="white"/>
</clipPath>
</defs>
</svg>
